<svg width="89" height="89" viewBox="0 0 89 89" fill="none" xmlns="http://www.w3.org/2000/svg">
<path d="M76.9853 70.3189C75.695 69.5001 74.1195 69.0372 72.7845 69.1084C72.6242 69.1174 72.455 69.1261 72.2948 69.1441L40.7532 37.6114L40.7622 37.6024C41.2872 37.0774 41.2872 36.2318 40.7622 35.7155L26.362 21.3064C25.8371 20.7815 24.9914 20.7815 24.4751 21.3064L24.3682 21.4133C21.0218 14.5425 16.8299 7.36023 13.9196 7.36023H13.8397C10.0928 7.52942 7.19131 10.7154 7.36056 14.4626C7.49412 17.3997 15.3795 21.6092 21.3781 24.4039L21.3068 24.4751C20.7818 25.0001 20.7818 25.8457 21.3068 26.362L35.707 40.7622C35.9651 41.0204 36.3122 41.1539 36.6503 41.1539C36.9884 41.1539 37.3355 41.0204 37.5936 40.7622L37.6026 40.7532L69.0997 72.2503C69.082 72.5884 69.0907 72.9268 69.1087 73.256C69.171 74.591 69.7406 76.1038 70.6215 77.3056C71.6718 78.7206 72.9978 79.495 74.3685 79.495H74.5376C75.926 79.4327 77.2076 78.8275 78.1423 77.8039C79.0769 76.7804 79.5572 75.4543 79.4949 74.0661C79.4326 72.6419 78.5426 71.3069 76.9851 70.319L76.9853 70.3189ZM10.0306 14.3467C9.92373 12.0951 11.6594 10.1726 13.9021 10.0393C15.1214 10.4487 18.2987 15.3527 21.387 21.4491C15.7266 18.7075 10.4133 15.5659 10.0306 14.3467H10.0306ZM36.6505 37.9317L24.1371 25.4183L25.4188 24.1367L37.9322 36.6501L36.6505 37.9317ZM76.834 74.1903C76.8607 74.8668 76.6292 75.5077 76.1755 76.006C75.7215 76.5043 75.0986 76.798 74.4221 76.8247C73.9415 76.8157 73.3096 76.433 72.7757 75.7211C72.4463 75.2761 72.1882 74.7512 72.0103 74.2259C71.948 74.0391 71.8947 73.8609 71.8591 73.683C71.8234 73.4962 71.7878 73.3093 71.7791 73.1401C71.7345 72.1878 71.8148 71.9563 71.7968 71.9477C71.8324 71.93 72.037 71.8141 72.9003 71.7785H73.0249C73.2118 71.7785 73.4076 71.7961 73.6035 71.8318C73.7993 71.8674 74.0128 71.9117 74.2176 71.9743C74.6716 72.1169 75.1343 72.3124 75.5437 72.5795C76.3268 73.0689 76.8074 73.6741 76.834 74.1903Z" fill="black"/>
</svg>
