<svg width="77" height="77" viewBox="0 0 77 77" fill="none" xmlns="http://www.w3.org/2000/svg">
<path d="M17.9366 3.2627H23.4445C24.3255 3.2627 25.1302 3.62342 25.7152 4.20843L25.7245 4.21768C26.3072 4.8027 26.6656 5.60507 26.6656 6.48606V7.5081H29.9629V3.72053C29.9629 2.8696 30.652 2.17822 31.5053 2.17822H36.9415C39.6261 2.17822 42.0679 3.27657 43.8345 5.04318L43.9224 5.13798C45.6381 6.89996 46.7018 9.30246 46.7018 11.9385C46.7018 14.6208 45.6034 17.0603 43.8368 18.8292C42.0702 20.6027 39.6284 21.7011 36.9438 21.7011H31.5076C30.6566 21.7011 29.9653 21.012 29.9653 20.1588V16.3735H26.6679V29.7988C26.6679 30.6867 26.3072 31.4914 25.7222 32.0764C25.1395 32.6591 24.3325 33.0222 23.4445 33.0222H22.1219C21.8328 36.1183 21.0975 39.1428 19.9553 42.0032C18.6326 45.3167 16.7643 48.4152 14.4057 51.153C13.8507 51.7935 12.8796 51.8629 12.2391 51.3102C11.5986 50.7553 11.5292 49.7841 12.0818 49.1436C14.2161 46.6648 15.9087 43.8646 17.1019 40.8701C18.0985 38.3682 18.7528 35.7276 19.0326 33.0222H17.9366C17.0556 33.0222 16.2486 32.6591 15.6659 32.0764C15.0786 31.4868 14.7156 30.6821 14.7156 29.7988V6.48375C14.7156 5.59582 15.0786 4.78882 15.6613 4.20612C16.244 3.62342 17.051 3.26038 17.9389 3.26038L17.9366 3.2627ZM58.0413 56.2355C58.3211 58.9409 58.9755 61.5838 59.9721 64.0834C61.1653 67.0756 62.8579 69.8781 64.9922 72.3569C65.5471 72.9974 65.4754 73.9686 64.8349 74.5235C64.1944 75.0785 63.2232 75.0068 62.6683 74.3663C60.3097 71.6285 58.4414 68.53 57.1187 65.2165C55.9788 62.3561 55.2434 59.3293 54.9521 56.2355H53.8283C52.8941 56.2355 52.0409 55.8516 51.4212 55.2342L51.4119 55.225C50.7922 54.603 50.4084 53.7474 50.4084 52.8132V39.5868H47.111V43.3721C47.111 44.223 46.422 44.9144 45.5687 44.9144H40.1325C37.4479 44.9144 35.0061 43.816 33.2395 42.0494C31.4729 40.2736 30.3745 37.8364 30.3745 35.1541C30.3745 32.5158 31.4359 30.1133 33.1539 28.3536L33.2418 28.2588C35.0084 26.4922 37.4502 25.3938 40.1348 25.3938H45.571C46.422 25.3938 47.1134 26.0829 47.1134 26.9361V30.7237H50.4107V29.9005C50.4107 28.9594 50.7969 28.1016 51.4143 27.4819C52.0316 26.8645 52.8895 26.4783 53.8306 26.4783H58.9385C59.8773 26.4783 60.7306 26.8645 61.3503 27.4819C61.9746 28.1085 62.3607 28.9617 62.3607 29.9005V52.8156C62.3607 53.7567 61.9746 54.6145 61.3572 55.2319C60.7375 55.8516 59.8819 56.2355 58.9385 56.2355H58.0413ZM44.0287 28.4738H40.1325C38.2988 28.4738 36.627 29.2277 35.4177 30.437L35.3414 30.5064C34.176 31.7111 33.4545 33.3505 33.4545 35.1518C33.4545 36.9901 34.206 38.6619 35.4154 39.8712C36.627 41.0783 38.2988 41.8321 40.1325 41.8321H44.0287V38.0468V32.2614V28.4738ZM50.4084 33.8014H47.111V36.5045H50.4084V33.8014ZM58.9385 29.5583H53.8306C53.7404 29.5583 53.6549 29.5976 53.5925 29.6577C53.5323 29.7179 53.4907 29.8057 53.4907 29.8959V32.2591V38.0445V52.8132C53.4907 52.908 53.5277 52.9936 53.5855 53.0514C53.6503 53.1161 53.7335 53.1531 53.8306 53.1531H58.9385C59.0287 53.1531 59.1166 53.1138 59.1767 53.0514C59.2368 52.9913 59.2761 52.9057 59.2761 52.8132V29.8982C59.2761 29.8034 59.2368 29.7179 59.179 29.6577C59.1189 29.5976 59.031 29.5606 58.9385 29.5606V29.5583ZM33.0476 9.04579V14.8312V18.6165H36.9438C38.7775 18.6165 40.4493 17.8626 41.6586 16.6533C42.8703 15.4463 43.6218 13.7745 43.6218 11.9385C43.6218 10.1372 42.9003 8.49546 41.7349 7.29306L41.6586 7.22369C40.4493 6.01435 38.7775 5.26054 36.9438 5.26054H33.0476V9.0481V9.04579ZM26.6679 10.5881V13.2912H29.9653V10.5881H26.6679ZM23.4468 6.34501H17.9389C17.9019 6.34501 17.8672 6.3612 17.8418 6.38663C17.8164 6.41207 17.8002 6.44675 17.8002 6.48375V29.7988C17.8002 29.8381 17.8164 29.8751 17.8395 29.8982C17.8649 29.9213 17.8996 29.9375 17.9389 29.9375H23.4468C23.4838 29.9375 23.5185 29.9213 23.544 29.8959C23.5694 29.8705 23.5856 29.8358 23.5856 29.7988V14.8312V9.04579V6.48375C23.5856 6.44213 23.5717 6.40744 23.5509 6.38663C23.5231 6.35888 23.4885 6.34501 23.4468 6.34501Z" fill="black"/>
</svg>
