<svg width="52" height="52" viewBox="0 0 52 52" fill="none" xmlns="http://www.w3.org/2000/svg">
<path d="M47 10H33V2H47V10ZM35 8H45V4H35V8Z" fill="black"/>
<path d="M44 5.5H42V9H44V5.5Z" fill="black"/>
<path d="M38 5.5H36V9H38V5.5Z" fill="black"/>
<path d="M47 21H33C31.3457 21 30 19.6543 30 18V8H50V18C50 19.6543 48.6543 21 47 21ZM32 10V18C32 18.5513 32.4482 19 33 19H47C47.5518 19 48 18.5513 48 18V10H32Z" fill="black"/>
<path d="M12.333 34.5H3.66699V28.9707H12.333V34.5ZM5.66699 32.5H10.333V30.9707H5.66699V32.5Z" fill="black"/>
<path d="M14 30.9707H2V25.5C2 23.8457 3.3457 22.5 5 22.5H11C12.6543 22.5 14 23.8457 14 25.5V30.9707ZM4 28.9707H12V25.5C12 24.9487 11.5518 24.5 11 24.5H5C4.44824 24.5 4 24.9487 4 25.5V28.9707Z" fill="black"/>
<path d="M31 50C25.4863 50 21 45.5142 21 40V23C21 19.6914 18.3086 17 15 17C11.6914 17 9 19.6914 9 23V23.5H7V23C7 18.5889 10.5889 15 15 15C19.4111 15 23 18.5889 23 23V40C23 44.4111 26.5889 48 31 48C35.4111 48 39 44.4111 39 40V20H41V40C41 45.5142 36.5137 50 31 50Z" fill="black"/>
</svg>
